<svg width="41" height="41" viewBox="0 0 41 41" fill="none" xmlns="http://www.w3.org/2000/svg">
<path d="M26.6501 20.5003C26.6501 22.1314 26.0021 23.6957 24.8488 24.849C23.6954 26.0024 22.1312 26.6503 20.5001 26.6503C18.869 26.6503 17.3047 26.0024 16.1514 24.849C14.998 23.6957 14.3501 22.1314 14.3501 20.5003C14.3501 20.1498 14.387 19.8074 14.4505 19.4753H12.3001V27.6692C12.3001 28.2391 12.7613 28.7003 13.3312 28.7003H27.671C27.9441 28.6998 28.2058 28.5909 28.3988 28.3976C28.5917 28.2043 28.7001 27.9423 28.7001 27.6692V19.4753H26.5496C26.6132 19.8074 26.6501 20.1498 26.6501 20.5003ZM20.5001 24.6003C21.0386 24.6002 21.5719 24.494 22.0694 24.2877C22.5669 24.0815 23.0189 23.7793 23.3996 23.3984C23.7804 23.0175 24.0823 22.5653 24.2883 22.0677C24.4943 21.5701 24.6002 21.0368 24.6001 20.4983C24.5999 19.9597 24.4937 19.4265 24.2875 18.9289C24.0813 18.4314 23.7791 17.9794 23.3982 17.5987C23.0173 17.218 22.5651 16.916 22.0675 16.71C21.5699 16.5041 21.0366 16.3981 20.498 16.3983C19.4104 16.3985 18.3674 16.8309 17.5985 17.6001C16.8296 18.3694 16.3977 19.4127 16.398 20.5003C16.3983 21.588 16.8306 22.631 17.5999 23.3999C18.3692 24.1688 19.4124 24.6006 20.5001 24.6003ZM25.4201 16.1953H27.878C28.0413 16.1953 28.198 16.1306 28.3136 16.0153C28.4293 15.9 28.4945 15.7436 28.4951 15.5803V13.1224C28.4951 12.9587 28.4301 12.8018 28.3143 12.686C28.1986 12.5703 28.0417 12.5053 27.878 12.5053H25.4201C25.2564 12.5053 25.0995 12.5703 24.9838 12.686C24.868 12.8018 24.803 12.9587 24.803 13.1224V15.5803C24.8051 15.9186 25.0818 16.1953 25.4201 16.1953ZM20.5001 0.820312C15.2806 0.820313 10.2749 2.89373 6.58421 6.58445C2.89349 10.2752 0.820068 15.2809 0.820068 20.5003C0.820068 25.7198 2.89349 30.7255 6.58421 34.4162C10.2749 38.1069 15.2806 40.1803 20.5001 40.1803C23.0845 40.1803 25.6436 39.6713 28.0313 38.6823C30.419 37.6932 32.5885 36.2436 34.4159 34.4162C36.2434 32.5887 37.693 30.4192 38.682 28.0315C39.671 25.6438 40.1801 23.0847 40.1801 20.5003C40.1801 17.9159 39.671 15.3568 38.682 12.9691C37.693 10.5814 36.2434 8.41191 34.4159 6.58445C32.5885 4.75699 30.419 3.30738 28.0313 2.31836C25.6436 1.32935 23.0845 0.820313 20.5001 0.820312ZM30.7501 28.4728C30.7501 29.7253 29.7251 30.7503 28.4725 30.7503H12.5276C11.2751 30.7503 10.2501 29.7253 10.2501 28.4728V12.5279C10.2501 11.2753 11.2751 10.2503 12.5276 10.2503H28.4725C29.7251 10.2503 30.7501 11.2753 30.7501 12.5279V28.4728Z" fill="#2B1600"/>
</svg>
