<svg width="172" height="52" viewBox="0 0 172 52" fill="none" xmlns="http://www.w3.org/2000/svg">
<path fill-rule="evenodd" clip-rule="evenodd" d="M1.61957 30.0471C1.61957 30.0471 0.954504 29.8094 1.00248 29.5238C1.05045 29.2381 2.04696 27.6223 2.04696 27.6223L2.71421 25.6751V25.1038L3.37927 25.5792L5.23056 25.8408C5.32433 25.8692 6.37971 24.7484 6.47347 24.7745L5.74299 25.9935L6.80056 26.5648C6.99899 26.6738 8.27897 25.5181 8.4774 25.6271L7.70112 27.0532L7.96933 27.3454L8.13287 27.5264C8.19393 27.5918 9.8904 26.4187 9.95145 26.4863C10.0103 26.5539 8.55372 27.9799 8.61477 28.0475L9.50008 28.9568C9.52406 28.983 11.2598 27.5744 11.456 27.7357C11.6108 27.8622 10.2349 29.5696 10.2676 29.5914C11.3252 30.3131 13.3073 30.8474 13.3073 29.9032C13.3073 29.0004 14.0204 25.8168 14.0204 25.8168L14.1577 23.645L14.0596 21.1265L12.8799 21.4928L12.1691 22.7292L12.7578 23.5512L13.3226 23.5382L13.4011 24.4518C13.4011 24.4518 13.2615 25.4374 12.9759 25.4374C12.6902 25.4374 10.9327 24.297 10.9327 24.297L10.3897 23.1042L11.1028 21.8439L13.2746 19.659L13.9811 19.4278H14.7814L14.6396 17.5504L15.7801 17.027L16.9663 17.4544V19.0222L16.7766 19.4038L18.678 19.8792L19.5328 21.3511L20.3876 22.5874L21.6305 22.9407L25.2284 1H36.7264L36.589 1.82425L31.7897 1.96598L31.6741 4.67859L36.8682 4.78761L36.685 5.62495L31.7199 5.33711L31.3863 6.78936L35.5446 7.66812L35.4966 8.19145L31.3557 7.90144L30.5555 11.6106L35.3069 11.8024L35.1651 12.751L24.5219 11.9922L22.7186 23.2503L23.4774 23.4662L23.3858 24.3123L22.7404 25.0318L22.4416 24.9664L21.5214 30.7122L25.9938 30.9477L29.4717 31.3772L33.9026 33.0039L37.4918 34.9882L39.7247 35.3676L41.4364 37.9341L45.6885 48.6952L45.4748 49.1945L43.8241 47.2931L41.4364 41.7348L39.3932 36.8395L37.7774 36.0807L38.3531 38.3114L37.6815 41.2115L38.3008 42.1622L37.5158 50.976L36.5411 51L36.5084 42.679L33.545 41.072L32.9781 39.7854L32.4896 42.4762C32.4896 42.4762 33.3596 43.8238 33.3596 44.1095C33.3596 44.3951 30.7452 50.6664 30.7452 50.6664L29.463 50.7623L31.8376 44.4889L30.2218 42.4479L28.3793 40.8059L27.7077 39.5957L27.7055 38.9786H26.7068L25.7561 40.2128L25.043 39.8814L25.2807 38.8827L20.1913 39.0244L18.63 48.7649H17.3937L18.931 39.3973L12.3108 41.4972L8.98547 41.6869L9.1272 44.6808L10.8825 48.6843C10.8825 48.6843 9.48481 48.8129 9.48481 48.3397C9.48481 47.8644 8.17648 44.2534 8.17648 44.2534L7.65533 42.304L6.65664 41.9246L5.70592 42.1143L5.42027 43.73L5.41155 46.4165L5.65795 48.0541C5.65795 48.0541 6.41896 48.7976 5.70592 48.9874C4.99506 49.1771 4.69197 48.9089 4.69197 48.9089L4.28202 46.8177V42.0663L2.76 38.9307L3.28333 36.9834L5.37448 32.8971L5.75389 31.0436L5.49223 30.2128L3.72162 30.6751L2.85594 32.7532L2.94971 34.8443H1.71552L1.47784 33.6559L2.38058 32.0423L3.0173 30.7165L1.61957 30.0471ZM21.3383 24.7244L19.8882 24.1182L18.8197 22.8251L18.2266 22.2538L17.7862 22.6638L17.965 24.1792L17.9192 26.6847C17.9192 26.6847 17.917 28.573 18.3444 29.2861C18.7718 29.9991 19.1054 30.5203 19.3889 30.4265C19.6723 30.3328 20.3549 30.6468 20.3658 30.6533L21.3383 24.7244ZM5.35267 29.7636L5.23056 29.3799L4.66144 28.5251H4.13811L3.87208 30.0885L4.13811 29.9991L5.35267 29.7636ZM3.21137 30.3066L3.69545 28.5251H3.61695L2.90391 29.0964L2.44164 29.8072L3.21137 30.3066ZM29.0007 11.4601L28.7107 11.4208L28.6606 11.1374L27.3522 10.7645L26.3972 10.5661L26.1137 10.5312L25.7997 10.4898L25.7779 9.79852L26.6763 9.94679L27.1538 10.0275L27.1058 9.77017L27.0622 9.53031L26.8856 9.31007L26.733 9.12255L26.4429 8.84344L26.1682 8.41387L26.0897 8.0737L26.2074 8.08243H26.7417L26.6697 8.52508L26.6959 8.76276L26.8638 9.02224L27.156 9.21195L27.4482 8.5556L27.8996 8.38988L28.4469 8.33973L28.9375 8.17401L29.0836 7.98212L29.2777 7.95813L29.3562 8.28086L29.2319 8.71478L28.9222 8.96991C28.9222 8.96991 28.5951 9.08548 28.5101 9.07458C28.4229 9.06367 27.7404 8.97427 27.7404 8.97427L27.4525 9.04405L27.2825 9.43655L27.3828 10.0057L27.6204 10.1736L28.6388 10.4963L28.8895 10.5595L28.9833 10.2455L29.2711 10.3L29.0749 10.8823L29.0007 11.4601ZM29.1599 6.50371L28.6911 6.90493L26.8616 6.50153L26.4844 6.04143L26.7155 5.91278L26.9728 5.76886L27.2803 5.57915L27.2912 5.70126L27.3784 5.02747L27.1516 4.99913L26.4473 5.15613L25.9458 5.59224L25.948 5.93458L26.2423 6.0785L26.4844 6.44701L26.7221 6.8853L27.3631 7.22765C27.3631 7.22765 27.8407 7.39773 28.1285 7.42608C28.3989 7.45225 28.6715 7.5024 28.7238 7.50894C28.7914 7.51766 29.0749 7.37593 29.1599 7.25382C29.245 7.13389 29.5088 6.92019 29.5088 6.92019L29.6113 6.56258L29.5546 6.13083L29.2886 5.78195L28.8655 5.44396L28.3575 5.10816L28.2899 5.63803L28.8394 5.97819L28.9789 6.05451L29.0509 6.17881L29.1141 6.28565L29.1425 6.41867L29.1599 6.50371ZM29.9689 4.84213H29.6723L29.6222 4.56956L28.2899 4.37113C27.7251 4.18578 27.3435 4.06585 26.7439 4.06585L26.7199 3.3877L27.6183 3.53598L28.0893 3.67117L28.0391 3.42477L27.9933 3.19363L27.8123 2.99956L27.3326 2.83166L27.0513 2.44352L26.9728 2.11862L27.1647 1.86132L27.6357 2.04448L27.5638 2.48932L27.7927 2.71827L28.0871 2.86873L28.3531 2.41954L28.8132 2.1993L29.3387 2.31269L29.8359 2.08591L29.9842 1.87876L30.1826 1.83079L30.2633 2.13825L30.1368 2.5809L29.8228 2.87091C29.8228 2.87091 29.4892 3.02573 29.4041 3.02573C29.3169 3.02573 28.6518 2.79459 28.6518 2.79459L28.3575 2.89926L28.2179 3.0737L28.3204 3.61884L28.5777 3.63846L29.5982 3.94156L29.8555 3.97209L29.9471 3.64937L30.2415 3.66681L30.043 4.26428L29.9689 4.84213Z" fill="#07941E" stroke="#07941E" stroke-width="0.0761994"/>
<path fill-rule="evenodd" clip-rule="evenodd" d="M54 42.297L54.0816 41.1599L55.3257 41.0783L58.0027 25.0932L57.4571 23.7471L56.575 23.4921L57.0033 22.8497L62.143 22.7426L62.194 23.431L62.2195 23.7981L61.2048 23.742L61.3271 24.772L60.7612 31.1099L60.2768 36.5352L63.9174 31.7626L66.2782 28.6676L67.2419 24.4252L66.9258 22.8344L70.8876 22.7681L69.0367 40.1758L69.5874 39.9464L70.4185 40.4308L68.8735 41.9349L66.6045 42.2613L64.8301 40.7571L66.2782 30.4879L60.032 38.8093L59.8689 40.8387L61.0977 41.1599L60.6133 42.1338L57.8395 41.8941L54 42.297ZM73.3402 42.2154L73.0955 40.7571L73.7583 36.6983L75.1248 31.8289L75.8795 28.3616L77.455 26.73L79.204 26.0875L83.431 23.8338L85.6745 26.1385L86.215 27.2551L86.73 28.8256L86.2456 30.8805L85.2819 32.6396L84.1907 33.8226L83.4819 34.5874C83.4819 34.5874 81.9421 35.4797 81.2078 35.4797C80.4787 35.4797 77.5723 35.4797 77.5723 35.4797L77.0726 36.372L76.2721 40.2676L76.3435 41.9757L73.3402 42.2154ZM77.8018 34.5772L78.4493 29.3151L79.7495 26.9747L81.5342 26.2456L84.0734 29.723L84.0479 31.4261L83.2372 32.8844L81.6157 34.4242H79.0204L77.8018 34.5772ZM88.2035 43.434V42.0522L89.4987 41.6494L90.4624 35.3063L90.8091 30.7275V29.3814V27.8874L94.0316 27.3673L93.8735 31.6555L93.7869 33.9398L94.9596 33.5625L96.061 33.2107L96.9788 32.247L97.764 31.4261L98.896 29.9015L100.742 28.3565L102.287 27.7905L102.307 28.3412L102.633 30.8448L100.523 30.7734L99.4212 31.0334L98.3198 31.9818L97.6009 33.4554L100.849 34.4242L101.889 36.4434L102.455 38.9725L103.526 41.1599L104.51 41.731L104.744 42.6233L103.281 43.1893L101.17 42.868L99.7934 41.5678C99.7934 41.5678 99.0591 40.1044 99.0591 39.7016C99.0591 39.2937 99.0591 36.0508 99.0591 36.0508L98.5594 34.7404L96.627 34.1846L94.0316 34.9953L93.384 36.2139L92.4866 41.1599L92.3388 42.3785L93.8684 42.6233L93.7869 44L90.9468 43.434H88.2035ZM112.021 41.7565L109.874 39.8036L110.654 31.008L112.581 28.9633L113.326 29.9729L114.152 31.0895L114.662 32.4051L114.606 35.342L114.29 38.8297L114.019 40.6398L113.479 41.0528L113.015 41.4046L112.413 41.6188L112.021 41.7565ZM110.292 43.638C110.292 43.638 109.13 42.5264 108.513 42.2052C107.896 41.8839 107.059 40.6347 107.059 40.3237C107.059 40.0738 107.136 38.7634 107.09 37.4836C107.049 36.1222 107.564 33.7869 107.564 33.7869L108.778 30.5847L110.68 29.2029L112.255 27.8568L112.755 26.3883L114.356 26.1793L116.696 28.2545L117.298 31.4567V33.792L116.808 38.6257L115.483 41.9247L114.009 43.3728L112.021 43.898L110.292 43.638ZM137.316 42.1083L137.072 27.1787L140.156 26.8268V37.4785L145.699 28.7848L145.735 27.4999L145.775 26.0773L149.161 26.1283L149.054 37.2388L148.998 43.1536L147.326 43.021L145.755 42.8935L145.974 36.8258L146.158 31.63L145.745 30.8499L144.7 31.9767L142.385 35.959L140.156 39.2274L140.075 42.7151L137.316 42.1083ZM155.525 41.6188L155.989 38.0904L157.712 32.6141L160.058 29.7536L163.418 26.9645L163.688 26.1589L163.984 25.2615L166.477 25.7969L167.803 28.2341L168.506 29.5293L169.47 32.5835L170.373 35.4542L170.765 38.1209L171.102 40.4053L171.199 41.5831L171.265 42.353L169.332 41.7208L167.329 42.2307L167.757 39.2478L167.736 35.7397L167.038 36.112L165.988 36.6729L164.009 39.0591L164.045 41.782L162.418 41.7004L162.694 38.3351L161.608 35.7805L160.312 34.1948L159.379 37.3204L158.767 41.7004L155.525 41.6188ZM160.929 33.2566L162.796 30.3757L164.422 28.5758L165.554 30.9927L167.104 34.8474L165.406 35.7907L163.688 37.3867L162.602 35.6021L160.929 33.2566ZM122.229 41.7361V25.7255L123.014 24.053L125.288 24.1499L125.089 32.8742L127.266 32.6906L129.688 32.4866L130.351 25.2258L132.049 24.721L132.952 24.4507L133.62 25.2462L134.247 25.9957L133.854 26.3068L133.518 26.5719L132.585 34.5772L131.978 39.773L132.992 40.9406L132.85 41.8024L130.112 41.6035H129.301L129.331 38.9521L129.658 33.7002L125.053 34.1591L124.921 41.6596L122.229 41.7361ZM88.9021 26.2966C88.9021 23.0638 86.0467 21.3557 90.6204 19C88.1118 23.278 92.3439 23.844 88.9021 26.2966Z" fill="#07941E" stroke="#07941E" stroke-width="0.0761994"/>
</svg>
