<svg width="40" height="40" viewBox="0 0 40 40" fill="none" xmlns="http://www.w3.org/2000/svg">
<circle cx="20" cy="20" r="20" fill="#2B1600"/>
<g clip-path="url(#clip0_22535:17)">
<path fill-rule="evenodd" clip-rule="evenodd" d="M11.4034 11.4034C10 12.8069 10 15.0657 10 19.5833V20.4167C10 24.9343 10 27.1931 11.4034 28.5965C12.8069 30 15.0657 30 19.5833 30H20.4167C24.9343 30 27.1931 30 28.5965 28.5965C30 27.1931 30 24.9343 30 20.4167V19.5833C30 15.0657 30 12.8069 28.5965 11.4034C27.1931 10 24.9343 10 20.4167 10H19.5833C15.0657 10 12.8069 10 11.4034 11.4034ZM13.9584 16.25H15.417C15.7898 16.25 15.9301 16.4131 16.0699 16.817C16.7833 18.8946 17.9862 20.7104 18.4807 20.7104C18.6661 20.7104 18.7512 20.625 18.7512 20.1542V18.0066C18.7177 17.3953 18.5041 17.1309 18.3459 16.9351C18.2482 16.8142 18.1716 16.7194 18.1716 16.5852C18.1716 16.4221 18.311 16.25 18.5427 16.25H20.835C21.1441 16.25 21.2517 16.4152 21.2517 16.7861V19.6752C21.2517 19.9842 21.3859 20.0923 21.4786 20.0923C21.6641 20.0923 21.8186 19.9842 22.1586 19.6443C23.2095 18.4701 23.9512 16.6624 23.9512 16.6624C24.044 16.4462 24.215 16.25 24.5858 16.25H26.0445C26.4856 16.25 26.5783 16.477 26.4856 16.7861C26.3002 17.6358 24.523 20.1387 24.523 20.1387C24.3685 20.3859 24.3067 20.5095 24.523 20.7876C24.5992 20.8942 24.7617 21.0535 24.9478 21.2356C25.139 21.4229 25.3551 21.6345 25.5275 21.8382C26.1541 22.5429 26.6263 23.1375 26.7578 23.5472C26.878 23.9583 26.6697 24.1667 26.2529 24.1667H24.7942C24.4035 24.1667 24.2068 23.9479 23.7817 23.4751C23.6015 23.2747 23.3802 23.0286 23.0858 22.7343C22.2204 21.9 21.8495 21.7918 21.6332 21.7918C21.3396 21.7918 21.2517 21.875 21.2517 22.2917V23.5995C21.2517 23.9583 21.137 24.1667 20.2098 24.1667C18.6645 24.1667 16.9662 23.2287 15.7608 21.4983C13.9528 18.9645 13.4582 17.0487 13.4582 16.6624C13.4582 16.4462 13.5416 16.25 13.9584 16.25Z" fill="white"/>
</g>
<defs>
<clipPath id="clip0_22535:17">
<rect width="20" height="20" fill="white" transform="translate(10 10)"/>
</clipPath>
</defs>
</svg>
